<?xml version="1.0" encoding="UTF-8"?>
<svg id="Layer_1" data-name="Layer 1" xmlns="http://www.w3.org/2000/svg" width="217.18" height="137.18" viewBox="0 0 217.18 137.18">
  <defs>
    <style>
      .cls-1 {
        isolation: isolate;
      }

      .cls-2 {
        fill: #097a99;
        stroke-width: 0px;
      }
    </style>
  </defs>
  <path class="cls-2" d="M66.92,3.38c33.91,0,62.25,21.16,69.18,49.41C130.63,22.82,102.62,0,68.87,0c-19.04,0-36.25,7.27-48.62,18.98,12.47-9.71,28.79-15.6,46.67-15.6h0Z"/>
  <path class="cls-2" d="M3.9,77.71C3.9,41.89,37.06,12.84,77.97,12.84c1.47,0,2.92.05,4.36.12-4.75-.95-9.69-1.47-14.76-1.47C30.25,11.49,0,38.72,0,72.31c0,12.39,4.13,23.91,11.2,33.53-4.68-8.51-7.3-18.04-7.3-28.12h0Z"/>
  <path class="cls-2" d="M81.87,133.13c-33.73,0-61.08-26.32-61.08-58.79,0-21.97,12.52-41.1,31.06-51.2C28.42,31.36,11.69,52.99,11.69,78.39c0,32.47,27.35,58.79,61.08,58.79,10.91,0,21.15-2.77,30.01-7.6-6.53,2.29-13.57,3.54-20.92,3.54h0Z"/>
  <path class="cls-2" d="M90.6,119.39c-31.5,0-57.21-21.24-58.69-47.92-.05.84-.07,1.68-.07,2.52,0,27.8,25.31,50.34,56.53,50.34,20.2,0,37.91-9.44,47.91-23.64-10.77,11.4-27.23,18.69-45.68,18.69Z"/>
  <g class="cls-1">
    <path class="cls-2" d="M49.39,98.48l1.94-12.2h3.42c.79,0,1.43.07,1.91.22s.95.44,1.4.86.81,1.01,1.1,1.76c.28.74.42,1.6.42,2.57,0,1.14-.2,2.21-.61,3.2-.41,1-.9,1.76-1.48,2.3-.58.54-1.15.89-1.7,1.05-.55.16-1.34.24-2.37.24h-4.03ZM51.82,96.64h1.86c.62,0,1.12-.08,1.49-.25.37-.17.73-.46,1.08-.87.34-.41.62-1,.83-1.77.21-.77.31-1.56.31-2.38,0-.67-.11-1.27-.32-1.81-.21-.54-.53-.92-.94-1.14-.41-.22-.97-.33-1.68-.33h-1.25l-1.37,8.55Z"/>
    <path class="cls-2" d="M70.64,86.28l-1.26,7.88c-.16,1.04-.37,1.84-.63,2.4-.25.57-.72,1.07-1.39,1.52-.67.45-1.48.67-2.42.67-.59,0-1.16-.1-1.71-.3-.55-.2-1.05-.58-1.48-1.14-.43-.56-.64-1.31-.64-2.25,0-.47.05-1.05.16-1.73l1.13-7.06h2.15l-1.15,7.18c-.13.77-.19,1.29-.19,1.56,0,.65.2,1.13.61,1.42.4.29.87.44,1.4.44.46,0,.87-.09,1.22-.29.36-.19.63-.48.83-.88s.37-1.09.53-2.08l1.17-7.35h1.67Z"/>
    <path class="cls-2" d="M71.15,98.48l1.94-12.2h4.08c.73,0,1.34.08,1.81.23s.9.48,1.27.99.55,1.11.55,1.81c0,1.45-.73,2.41-2.18,2.9,1.21.56,1.82,1.48,1.82,2.76,0,.84-.28,1.64-.84,2.39-.56.75-1.65,1.13-3.27,1.13h-5.18ZM73.52,96.68h2.37c.63,0,1.09-.05,1.39-.17.3-.11.55-.32.75-.63.2-.31.3-.68.3-1.13,0-.4-.1-.75-.31-1.04-.21-.29-.44-.48-.71-.57-.26-.09-.63-.14-1.09-.14h-2.12l-.59,3.67ZM74.37,91.33h2.07c.92,0,1.52-.19,1.82-.57.3-.38.45-.78.45-1.19,0-1.07-.65-1.6-1.96-1.6h-1.84l-.54,3.36Z"/>
    <path class="cls-2" d="M83.97,98.48h-2.16l1.94-12.2h2.16l-1.95,12.2Z"/>
    <path class="cls-2" d="M95.31,98.48h-1.66l-3.98-9.17-1.46,9.17h-1.68l1.94-12.2h2.16l3.63,8.38,1.34-8.38h1.66l-1.95,12.2Z"/>
    <path class="cls-2" d="M106.83,88.59l-1.91.74c-.41-1.01-1.15-1.52-2.22-1.52-.65,0-1.15.16-1.51.48s-.54.71-.54,1.18c0,.36.12.66.37.89.24.23.65.43,1.21.59l1.6.49c.46.14.9.35,1.31.65.42.3.72.67.93,1.12.2.45.31.92.31,1.41,0,1.11-.39,2.07-1.18,2.88-.79.81-1.94,1.22-3.45,1.22-2.34,0-3.86-1.01-4.56-3.04l1.9-.71c.46,1.27,1.39,1.91,2.78,1.91.8,0,1.39-.19,1.77-.58.39-.38.58-.82.58-1.31,0-.28-.07-.52-.22-.73-.14-.21-.33-.36-.55-.47-.22-.11-.67-.26-1.33-.46-.93-.28-1.62-.54-2.08-.8-.46-.25-.83-.61-1.12-1.09s-.43-1.04-.43-1.7c0-1.11.38-2.03,1.15-2.74.77-.71,1.81-1.06,3.14-1.06,1.96,0,3.3.87,4.04,2.61Z"/>
    <path class="cls-2" d="M116.75,98.48h-2.2l-1.73-6.12-2.71,3.11-.49,3.01h-2.08l1.94-12.2h2.09l-.85,5.32c-.02.1-.11.53-.26,1.29.2-.33.42-.63.66-.9l4.91-5.7h2.24l-3.81,4.35,2.3,7.85Z"/>
    <path class="cls-2" d="M118.14,93.29c0-1.87.5-3.56,1.5-5.08,1-1.52,2.34-2.27,4.02-2.27,1.4,0,2.5.49,3.31,1.47.8.98,1.21,2.33,1.21,4.05,0,1.92-.51,3.62-1.53,5.12-1.02,1.49-2.37,2.24-4.06,2.24-1.23,0-2.28-.5-3.15-1.52-.86-1.01-1.3-2.35-1.3-4.01ZM120.35,93.67c0,1.19.22,2.04.67,2.55.45.51,1,.76,1.64.76,1.13,0,1.95-.65,2.48-1.96.53-1.31.79-2.66.79-4.06,0-2.13-.8-3.2-2.41-3.2-1.07,0-1.87.67-2.39,2.02-.53,1.34-.79,2.64-.79,3.89Z"/>
    <path class="cls-2" d="M127.76,101.65h-1.28l9.06-15.37h1.31l-9.09,15.37Z"/>
    <path class="cls-2" d="M148.08,98.48h-2.09l1.77-11.11-4.97,11.11h-1.13l-1.57-11.01-1.76,11.01h-1.63l1.95-12.2h3.2l1.2,8.2,3.56-8.2h3.41l-1.94,12.2Z"/>
    <path class="cls-2" d="M159.89,98.48h-2.33l-.48-2.95h-4.22l-1.3,2.95h-1.97l5.58-12.2h2.58l2.13,12.2ZM156.88,93.83l-.91-5.42-2.4,5.42h3.31Z"/>
    <path class="cls-2" d="M170.11,88.59l-1.91.74c-.41-1.01-1.15-1.52-2.22-1.52-.65,0-1.15.16-1.51.48-.36.32-.54.71-.54,1.18,0,.36.12.66.37.89.24.23.65.43,1.21.59l1.6.49c.46.14.9.35,1.31.65.41.3.73.67.93,1.12.21.45.31.92.31,1.41,0,1.11-.39,2.07-1.18,2.88-.79.81-1.94,1.22-3.45,1.22-2.34,0-3.86-1.01-4.55-3.04l1.9-.71c.46,1.27,1.39,1.91,2.78,1.91.8,0,1.39-.19,1.77-.58.39-.38.58-.82.58-1.31,0-.28-.07-.52-.22-.73-.14-.21-.33-.36-.55-.47-.22-.11-.67-.26-1.33-.46-.93-.28-1.62-.54-2.08-.8-.46-.25-.83-.61-1.12-1.09-.29-.48-.43-1.04-.43-1.7,0-1.11.38-2.03,1.15-2.74.77-.71,1.81-1.06,3.14-1.06,1.96,0,3.3.87,4.04,2.61ZM166.4,85.36l-2.44-2.57,1.51-.18,1.13,1.17,1.72-1.17,1.52.18-3.44,2.57Z"/>
    <path class="cls-2" d="M172.97,98.48h-2.16l1.95-12.2h2.16l-1.94,12.2Z"/>
    <path class="cls-2" d="M184.31,98.48h-1.66l-3.98-9.17-1.46,9.17h-1.68l1.95-12.2h2.16l3.63,8.38,1.34-8.38h1.66l-1.95,12.2Z"/>
    <path class="cls-2" d="M195.83,88.59l-1.91.74c-.41-1.01-1.15-1.52-2.22-1.52-.65,0-1.15.16-1.51.48-.36.32-.54.71-.54,1.18,0,.36.12.66.37.89.24.23.65.43,1.21.59l1.6.49c.46.14.9.35,1.31.65.41.3.73.67.93,1.12.21.45.31.92.31,1.41,0,1.11-.39,2.07-1.18,2.88-.79.81-1.94,1.22-3.45,1.22-2.34,0-3.86-1.01-4.55-3.04l1.9-.71c.46,1.27,1.39,1.91,2.78,1.91.8,0,1.39-.19,1.77-.58.39-.38.58-.82.58-1.31,0-.28-.07-.52-.22-.73-.14-.21-.33-.36-.55-.47-.22-.11-.67-.26-1.33-.46-.93-.28-1.62-.54-2.08-.8-.46-.25-.83-.61-1.12-1.09-.29-.48-.43-1.04-.43-1.7,0-1.11.38-2.03,1.15-2.74.77-.71,1.81-1.06,3.14-1.06,1.96,0,3.3.87,4.04,2.61Z"/>
    <path class="cls-2" d="M205.75,98.48h-2.2l-1.73-6.12-2.71,3.11-.49,3.01h-2.08l1.95-12.2h2.09l-.85,5.32c-.02.1-.1.53-.26,1.29.21-.33.42-.63.66-.9l4.91-5.7h2.23l-3.81,4.35,2.3,7.85Z"/>
    <path class="cls-2" d="M207.15,93.29c0-1.87.5-3.56,1.5-5.08,1-1.52,2.34-2.27,4.02-2.27,1.4,0,2.5.49,3.31,1.47.8.98,1.21,2.33,1.21,4.05,0,1.92-.51,3.62-1.53,5.12-1.02,1.49-2.37,2.24-4.06,2.24-1.23,0-2.28-.5-3.15-1.52-.86-1.01-1.3-2.35-1.3-4.01ZM209.36,93.67c0,1.19.23,2.04.67,2.55.45.51,1,.76,1.64.76,1.13,0,1.95-.65,2.48-1.96.53-1.31.79-2.66.79-4.06,0-2.13-.8-3.2-2.41-3.2-1.07,0-1.87.67-2.39,2.02-.53,1.34-.79,2.64-.79,3.89Z"/>
  </g>
  <path class="cls-2" d="M82.83,69.27c-.51.9-1.58,2.89-5.28,3.61-.94,2.22-2.95,5.86-6.81,5.86-2.09,0-3.35-1.62-3.11-3.68-.87,2.89-.75,3.65-.91,3.65-4.1,0-2.84-3.53-2.32-4.66,1.54-3.46,8.82-18.38,9.65-20.18.39-.79.71-1.58,1.1-2.37.04-.11.12-.19.24-.19.16,0,.35.19.67.83.55,1.28-.04,3.08-4.33,12.74,1.69-2.33,3.39-3.57,5.12-3.57,2.05,0,3.74,2.97,1.1,10.52,2.01-.26,3.35-1.28,4.33-2.89.39-.71.91-.3.55.34ZM75.89,62.92c-2.09,0-5.24,4.51-7.76,10.94.94-.75,4.17-1.32,5.79-1.5,2.01-2.41,4.06-9.43,1.97-9.43ZM70.22,75.17c.79,0,1.93-.41,3.03-1.77-1.65.3-3.66.64-3.86,1.35-.08.19.28.41.83.41Z"/>
  <path class="cls-2" d="M95.82,69.23c-4.96,9.06-6.34,9.51-7.84,9.51-1.81,0-3.35-1.39-3.27-3.65.08-1.95,1.14-4.17,3.31-7.22.55-.79,3.27-4.7,1.34-4.7-.28,0-.63.08-1.14.26-.55.23-1.42.56-2.76.49-.63,1.47-1.58,3.72-2.95,5.86-.2.3-.67-.04-.51-.34.94-1.8,2.13-3.95,2.52-5.86-2.28-1.54-1.89-5.86.39-6.43,1.85-.45,1.3,4.02,1.1,4.89,2.01.26,2.44-.34,4.17-.34,2.13,0,2.28,2.33,1.89,3.34-.75,2.03-5.04,9.7-1.89,9.7.63,0,1.69-.26,5.12-5.86.35-.71.91-.3.51.34Z"/>
  <path class="cls-2" d="M96.25,67.09c2.48-4.25,5.44-5.79,7.44-5.79,1.62,0,2.44,1.05,2.4,3.08.35-.56,1.14-1.88,1.65-2.78.28-.45,2.56,0,.79,3.57-3.35,6.69-4.13,9.66-2.48,9.66.63,0,1.69-.3,5.12-5.9.35-.71.91-.3.51.34-4.96,9.06-6.73,9.47-7.76,9.47-3.19,0-2.84-4.28-2.01-6.46-1.54,2.67-3.54,6.46-5.71,6.46-3.15,0-3.27-5.94.04-11.65ZM98.38,73.85c1.97,0,4.45-3.95,5.99-6.61,1.06-1.92,1.06-4.55-.43-4.55-3.5,0-8.07,11.16-5.55,11.16Z"/>
  <path class="cls-2" d="M127.32,69.27c-4.96,9.06-6.73,9.47-7.76,9.47-3.19,0-3.03-3.87-2.01-6.46,1.06-2.63,2.72-5.11,3.35-6.54.83-1.69.95-3.04-.28-2.82-1.97.41-4.92,3.42-7.17,8.49-2.76,6.35-2.21,7.29-2.36,7.29-4.1,0-2.84-3.53-2.32-4.66,1.54-3.46,8.86-18.38,9.69-20.18.35-.79.71-1.58,1.06-2.37.04-.11.12-.19.24-.19.16,0,.39.19.67.83.55,1.28-.04,3.08-4.29,12.74,1.65-2.33,3.66-3.57,5.39-3.57s4.37,1.05.32,9.28c-1.38,2.78-1.26,4.21-.12,4.21.59,0,1.65-.26,5.08-5.86.35-.71.91-.3.51.34Z"/>
  <path class="cls-2" d="M134.76,69.27c-4.96,9.06-6.77,9.47-7.76,9.47-3.19,0-3.23-3.87-2.01-6.46.51-1.13,1.06-1.99,2.28-4.25,1.54-2.78,3.31-6.09,3.62-6.61.24-.41,2.52.04.75,3.57-3.31,6.73-4.21,9.85-2.52,9.85.59,0,1.65-.3,5.08-5.9.39-.71.95-.3.55.34ZM133.19,59.76c-.79-.9-1.22-2.25-.47-3.91.55-1.24,1.42-1.88,2.17-1.8,1.1.11,1.3.9,1.18,1.47-.24,1.54-1.77,3.01-2.25,4.13-.12.23-.43.3-.63.11Z"/>
  <path class="cls-2" d="M157.21,69.27c-4.96,9.06-6.77,9.47-7.76,9.47-3.19,0-3.07-3.87-2.01-6.46,1.02-2.63,2.68-5.11,3.35-6.54.79-1.69.91-3.12-.31-2.82-3.54.9-7.25,10.64-8.03,12.74-.98,2.59-.98,3.12-1.1,3.08-3.9-1.01-2.25-4.28-1.22-6.46,1.1-2.25,2.44-5.11,3.11-6.54.79-1.69.91-3.12-.31-2.82-2.36.6-5.24,5.56-6.38,8.19-2.36,5.52-2.32,7.59-2.48,7.59-4.1,0-2.84-3.53-2.32-4.66,1.54-3.46,5.87-11.58,6.22-12.36.08-.15.2-.38.43-.38.16,0,.43.15.79.49.63.64.2,2.29-.43,3.8.75-1.24,2.95-4.28,5.12-4.28,1.26,0,2.88.45,1.89,4.81,2.17-3.95,4.45-4.81,5.63-4.81,1.65,0,4.41,1.05.31,9.28-1.38,2.78-1.26,4.21-.12,4.21.59,0,1.65-.26,5.08-5.86.39-.71.95-.3.55.34Z"/>
  <path class="cls-2" d="M69.12,51.22c.68-.36,1.52-.67,2.34-.67s1.36.52,1.36,1.19-.58,1.19-1.36,1.19c-.51,0-1.05-.04-1.56-.16-1.56,1.51-3.05,4.76-4.07,7.73l-2.41,6.98c-1.73,5.04-5.76,11.86-11.32,11.86-3.02,0-4.95-2.54-4.95-4.64,0-2.46,1.56-3.85,3.05-3.85,1.08,0,1.86.87,1.9,1.27-.88-.04-1.52.75-1.52,1.98,0,1.51,1.32,2.97,3.42,2.97,1.63,0,2.81-1.15,3.69-2.82,2.37-4.48,2.27-10.31,5.29-16.22,1.22-2.38,2.95-4.56,4.78-5.95-3.05-1.19-6.3-3.25-9.59-3.25-4.34,0-7.63,3.89-7.63,8.21,0,3.85,2.41,5.51,4.85,5.51,1.8,0,2.92-1.59,2.92-3.25,0-1.19-.61-2.22-1.69-2.22-.2,0-.44.12-.61.2.2-1.03.81-1.51,1.69-1.51,1.32,0,2.51,1.23,2.51,3.05,0,3.37-3.08,5.24-5.7,5.24-3.69,0-6.81-2.62-6.81-7.3,0-5.2,4.03-9.48,9.46-9.48,4.68,0,8.31,2.7,11.97,3.93Z"/>
</svg>